HIERARCHY
ROOT root
{
	OFFSET	0	13.1	24.9
	CHANNELS 6  Xposition Yposition Zposition Xrotation Yrotation Zrotation
	JOINT spine_1
	{
		OFFSET	0	9.99999	0
		CHANNELS 3  Xrotation Yrotation Zrotation
		JOINT spine_2
		{
			OFFSET	0	112	-10
			CHANNELS 3  Xrotation Yrotation Zrotation
			JOINT spine_3
			{
				OFFSET	0	206.5	19.3
				CHANNELS 3  Xrotation Yrotation Zrotation
				JOINT spine_4
				{
					OFFSET	0	110.4	14.6
					CHANNELS 3  Xrotation Yrotation Zrotation
					JOINT neck_1
					{
						OFFSET	0	71.8	-50.3
						CHANNELS 3  Xrotation Yrotation Zrotation
						JOINT neck_2
						{
							OFFSET	0	86.2	-25.8
							CHANNELS 3  Xrotation Yrotation Zrotation
							JOINT head_ee
							{
								OFFSET	0	179.8	-8.7
								CHANNELS 3  Xrotation Yrotation Zrotation
								End Site
								{
									OFFSET	1	0	0
								}
							}
						}
					}
					JOINT left_clavicle
					{
						OFFSET	-43.2	22.4	-70.8
						CHANNELS 3  Xrotation Yrotation Zrotation
						JOINT left_shoulder
						{
							OFFSET	-93.9	-5.79999	48.7
							CHANNELS 3  Xrotation Yrotation Zrotation
							JOINT left_elbow
							{
								OFFSET	-291.4	-30.8	15.2
								CHANNELS 3  Xrotation Yrotation Zrotation
								JOINT left_lowarm_twist
								{
									OFFSET	-110.7	-3.89999	13.6
									CHANNELS 3  Xrotation Yrotation Zrotation
									JOINT left_hand
									{
										OFFSET	-110.7	-3.89999	13.6
										CHANNELS 3  Xrotation Yrotation Zrotation
										JOINT left_ee
										{
											OFFSET	-80.8	-5.10001	12.1
											CHANNELS 3  Xrotation Yrotation Zrotation
											End Site
											{
												OFFSET	1	0	0
											}
										}
									}
								}
							}
						}
					}
					JOINT right_clavicle
					{
						OFFSET	43.2	22.4	-70.8
						CHANNELS 3  Xrotation Yrotation Zrotation
						JOINT right_shoulder
						{
							OFFSET	93.9	-5.79999	48.7
							CHANNELS 3  Xrotation Yrotation Zrotation
							JOINT right_elbow
							{
								OFFSET	291.4	-30.8	15.2
								CHANNELS 3  Xrotation Yrotation Zrotation
								JOINT right_lowarm_twist
								{
									OFFSET	110.7	-3.89999	13.6
									CHANNELS 3  Xrotation Yrotation Zrotation
									JOINT right_hand
									{
										OFFSET	110.7	-3.89999	13.6
										CHANNELS 3  Xrotation Yrotation Zrotation
										JOINT right_ee
										{
											OFFSET	80.8	-5.10001	12.1
											CHANNELS 3  Xrotation Yrotation Zrotation
											End Site
											{
												OFFSET	1	0	0
											}
										}
									}
								}
							}
						}
					}
				}
			}
		}
	}
	JOINT left_hip
	{
		OFFSET	-82.8	-127.5	0.300001
		CHANNELS 3  Xrotation Yrotation Zrotation
		JOINT left_knee
		{
			OFFSET	-28.2	-396.7	2.2
			CHANNELS 3  Xrotation Yrotation Zrotation
			JOINT left_ankle
			{
				OFFSET	-11.7	-411.3	35.4
				CHANNELS 3  Xrotation Yrotation Zrotation
				JOINT left_toes
				{
					OFFSET	0	-60	-88.6
					CHANNELS 3  Xrotation Yrotation Zrotation
					JOINT left_foot_ee
					{
						OFFSET	-22.5	-16.5	-42.2
						CHANNELS 3  Xrotation Yrotation Zrotation
						End Site
						{
							OFFSET	1	0	0
						}
					}
				}
			}
		}
	}
	JOINT right_hip
	{
		OFFSET	82.8	-127.5	0.300001
		CHANNELS 3  Xrotation Yrotation Zrotation
		JOINT right_knee
		{
			OFFSET	28.2	-396.7	2.2
			CHANNELS 3  Xrotation Yrotation Zrotation
			JOINT right_ankle
			{
				OFFSET	11.7	-411.3	35.4
				CHANNELS 3  Xrotation Yrotation Zrotation
				JOINT right_toes
				{
					OFFSET	0	-60	-88.6
					CHANNELS 3  Xrotation Yrotation Zrotation
					JOINT right_foot_ee
					{
						OFFSET	22.5	-16.5	-42.2
						CHANNELS 3  Xrotation Yrotation Zrotation
						End Site
						{
							OFFSET	1	0	0
						}
					}
				}
			}
		}
	}
}
MOTION
Frames: 8
Frame Time: 0.02
997.271 690.724 -1426.6 -107.637 86.3809 110.398 2.33738 -0.676745 -1.34173 2.33819 -0.590005 -1.38207 2.35248 -0.346799 -1.46216 2.34995 -0.573346 -1.38906 -18.331 9.2937 5.44586 -18.5213 14.9741 8.71134 -0.0 0.0 -0.0 7.5676 14.7092 14.0914 0.186765 -33.8894 66.3951 1.66461 -39.5057 0.597785 10.6257 0.25148 -1.3321 0.35814 23.1353 11.3453 -0.0 0.0 -0.0 7.91543 -11.1657 -14.9506 -6.28125 -30.2556 -59.4903 1.06304 27.7704 -0.262791 -51.6487 4.26621 -4.76634 8.99838 10.295 -75.7692 0.0 0.0 0.0 4.43403 -1.00065 2.16386 5.26194 -0.252167 -0.767621 21.7185 -0.721277 -2.96803 -24.8853 0.0 0.0 -0.0 0.0 -0.0 16.757 6.58281 -0.245607 -52.4218 1.43957 -7.6396 36.113 -10.9277 4.52582 -2.77112 0.0 0.0 0.0 0.0 0.0 
981.354 689.776 -1424.27 -114.302 86.6027 117.115 2.39183 -0.831779 -1.35447 2.39255 -0.743914 -1.40464 2.41089 -0.496239 -1.51 2.40844 -0.728465 -1.41271 -17.5535 9.97364 5.23181 -17.7808 16.3077 8.6648 -0.0 0.0 -0.0 8.07397 15.0983 14.9139 1.83806 -33.8828 66.4234 1.64455 -39.1653 0.585071 11.0542 0.256406 -1.38661 0.105214 22.6731 9.69208 -0.0 0.0 -0.0 7.85837 -13.4474 -14.6843 -5.46009 -30.9223 -56.7154 1.03712 27.1915 -0.25083 -49.9772 4.06912 -4.68171 9.05432 10.7253 -76.2327 0.0 0.0 0.0 3.03149 -0.131374 2.71399 5.09307 -0.242982 -0.743354 23.6388 -0.294928 -3.19567 -24.6923 0.0 0.0 -0.0 0.0 -0.0 17.647 5.51808 -0.162628 -52.8483 1.47917 -7.69202 35.8814 -11.4336 4.50745 -0.96458 0.0 0.0 0.0 0.0 0.0 
968.36 687.621 -1423.29 -128.677 87.2015 131.499 2.26924 -1.00266 -1.34307 2.26977 -0.915173 -1.40414 2.29242 -0.662009 -1.53975 2.29023 -0.896852 -1.41591 -18.3375 8.75295 4.98399 -18.5131 14.1795 8.06856 -0.0 0.0 -0.0 8.27922 13.8472 15.3773 3.4353 -34.1904 66.7742 1.70246 -40.1392 0.622027 10.3617 0.248242 -1.29853 -0.0944285 22.8573 8.5899 -0.0 0.0 -0.0 8.13124 -15.4509 -14.9779 -4.53587 -31.3497 -53.6026 1.01273 26.6413 -0.23979 -50.7447 4.15931 -4.72129 8.94098 9.76042 -75.4788 0.0 0.0 0.0 1.19511 0.733511 3.26139 6.19627 -0.304282 -0.901402 24.4807 0.260636 -3.29101 -25.3531 0.0 0.0 -0.0 0.0 -0.0 19.9281 6.17845 -0.989412 -52.3746 1.43521 -7.63378 35.5639 -13.5336 4.4966 -1.79067 0.0 0.0 0.0 0.0 0.0 
959.517 687.464 -1426.31 -130.151 86.9971 133.067 2.22604 -1.09906 -1.38516 2.22655 -1.0087 -1.45227 2.25239 -0.74487 -1.60364 2.25016 -0.988761 -1.46592 -18.3815 8.40278 4.57063 -18.5541 13.7302 7.55255 -0.0 0.0 -0.0 8.57581 11.2558 16.1255 5.33589 -34.2907 66.171 1.57283 -37.9206 0.540378 9.51289 0.236786 -1.19072 -0.258626 23.2807 7.79386 -0.0 0.0 -0.0 8.27655 -16.9328 -15.0728 -4.18013 -31.3816 -52.7988 0.975416 25.789 -0.223307 -50.8496 4.17168 -4.7266 8.94053 9.38975 -76.2493 0.0 0.0 0.0 -0.0192491 1.32084 3.0549 6.38067 -0.314825 -0.927706 26.869 0.642917 -3.56257 -25.6035 0.0 0.0 -0.0 0.0 -0.0 21.0212 5.58099 -0.868385 -48.7491 1.11498 -7.17646 34.6409 -16.0488 4.43627 -2.90068 0.0 0.0 0.0 0.0 0.0 
951.199 688.733 -1426.54 -117.32 87.4174 120.701 2.27248 -0.74702 -1.6432 2.27375 -0.640961 -1.68739 2.2927 -0.343373 -1.77204 2.28885 -0.618886 -1.69561 -18.3396 7.93402 4.89256 -18.4661 12.6507 7.6552 -0.0 0.0 -0.0 8.73145 9.95202 16.5156 6.68351 -34.8211 66.5831 1.55026 -37.52 0.526573 9.59664 0.237987 -1.20135 -0.295615 23.0024 7.47214 -0.0 0.0 -0.0 8.38265 -18.1792 -15.11 -2.70942 -31.4573 -50.4614 0.833543 22.4362 -0.165322 -48.3528 3.88001 -4.59399 8.99692 9.8534 -76.6978 0.0 0.0 0.0 -0.788467 1.88203 2.62571 6.86444 -0.342889 -0.996556 28.6763 1.29488 -3.75905 -26.5063 0.0 0.0 -0.0 0.0 -0.0 23.0556 3.19988 -0.272827 -40.4853 0.497929 -6.06608 30.082 -13.4337 3.92852 -6.42452 0.0 0.0 0.0 0.0 0.0 
942.723 688.978 -1426.68 -112.167 87.7567 115.689 2.2379 -0.582483 -1.72554 2.23943 -0.47152 -1.75909 2.25391 -0.162866 -1.81387 2.24959 -0.447245 -1.76542 -18.1548 7.67051 5.01562 -18.2563 12.0574 7.64088 -0.0 0.0 -0.0 8.99558 7.79806 17.1754 7.36904 -35.1559 66.3944 1.48865 -36.404 0.489526 9.84688 0.241485 -1.23312 -0.324307 22.8191 7.23431 -0.0 0.0 -0.0 8.38819 -18.8579 -15.0407 -1.85128 -31.3718 -49.1225 0.727446 19.8169 -0.127072 -47.6045 3.79375 -4.55179 9.01396 9.98557 -76.8496 0.0 0.0 0.0 -2.12178 1.96232 2.3149 6.87818 -0.343694 -0.998507 30.0133 1.55986 -3.90184 -27.1473 0.0 0.0 -0.0 0.0 -0.0 24.9427 1.44905 0.34326 -35.9253 0.228094 -5.41945 26.513 -13.3758 3.5293 -8.68959 0.0 0.0 0.0 0.0 0.0 
932.946 685.575 -1429.02 -120.912 87.6133 124.502 2.26153 -0.776439 -1.7447 2.26298 -0.663864 -1.79055 2.28381 -0.348052 -1.87764 2.27946 -0.640175 -1.79915 -18.7817 7.44404 4.88697 -18.8878 11.755 7.50723 -0.0 0.0 -0.0 9.1532 5.38475 17.6471 7.73283 -35.2665 65.1797 1.45907 -35.8566 0.472087 9.33935 0.234247 -1.1687 -0.299091 22.041 7.07983 -0.0 0.0 -0.0 8.4394 -19.9088 -14.9956 -2.16534 -30.8814 -48.2713 0.691709 18.9142 -0.115222 -45.4432 3.54775 -4.42361 8.89586 8.95308 -76.0336 0.0 0.0 0.0 -2.80676 1.36491 1.7143 4.80112 -0.227271 -0.701336 33.1765 0.362195 -4.23682 -27.9739 0.0 0.0 -0.0 0.0 -0.0 26.0664 0.560863 0.401777 -30.1312 -0.0390174 -4.57095 16.8377 -13.2958 2.34368 -12.5027 0.0 0.0 0.0 0.0 0.0 
921.55 687.63 -1432.02 -125.424 87.6549 129.089 2.28212 -0.847387 -1.77579 2.28358 -0.732692 -1.82609 2.30703 -0.410614 -1.92424 2.30256 -0.709309 -1.83529 -19.2217 7.04742 4.93146 -19.3106 11.0114 7.43747 -0.0 0.0 -0.0 9.18314 3.6341 17.8121 6.94989 -35.3857 64.3952 1.43021 -35.3148 0.455288 9.68217 0.239198 -1.21221 -0.290084 21.6017 6.96201 -0.0 0.0 -0.0 8.56383 -21.0264 -15.0461 -2.03948 -30.3999 -47.699 0.62348 17.1636 -0.0940909 -45.8603 3.59484 -4.44907 8.88027 8.78216 -75.9936 0.0 0.0 0.0 -3.54552 1.16936 1.03424 2.87628 -0.129087 -0.422418 35.9585 0.309225 -4.50862 -27.3087 0.0 0.0 -0.0 0.0 -0.0 26.9216 -0.230628 0.520602 -24.659 -0.21132 -3.74911 12.438 -12.9989 1.75997 -14.257 0.0 0.0 0.0 0.0 0.0 
